<?xml version="1.0" encoding="UTF-8" standalone="no"?>
<!-- Generator: Adobe Illustrator 17.1.0, SVG Export Plug-In . SVG Version: 6.00 Build 0)  -->

<svg
   version="1.1"
   id="Capa_1"
   x="0px"
   y="0px"
   viewBox="0 0 298.305 298.305"
   style="enable-background:new 0 0 298.305 298.305;"
   xml:space="preserve"
   sodipodi:docname="finger-swipe-icon.svg"
   inkscape:version="1.2.2 (732a01da63, 2022-12-09)"
   xmlns:inkscape="http://www.inkscape.org/namespaces/inkscape"
   xmlns:sodipodi="http://sodipodi.sourceforge.net/DTD/sodipodi-0.dtd"
   xmlns="http://www.w3.org/2000/svg"
   xmlns:svg="http://www.w3.org/2000/svg"><defs
   id="defs93" /><sodipodi:namedview
   id="namedview91"
   pagecolor="#ffffff"
   bordercolor="#000000"
   borderopacity="0.25"
   inkscape:showpageshadow="2"
   inkscape:pageopacity="0.0"
   inkscape:pagecheckerboard="0"
   inkscape:deskcolor="#d1d1d1"
   showgrid="false"
   inkscape:zoom="2.7287508"
   inkscape:cx="95.831397"
   inkscape:cy="149.1525"
   inkscape:window-width="1920"
   inkscape:window-height="1017"
   inkscape:window-x="-8"
   inkscape:window-y="-8"
   inkscape:window-maximized="1"
   inkscape:current-layer="Capa_1" />















<g
   id="g218"
   transform="matrix(0,-0.92628993,0.92628993,0,10.994385,287.31096)"><g
     id="g58">
	<path
   style="fill:#222220"
   d="m 218.731,131.913 -38.492,-6.036 V 58.702 c 0,-15.952 -12.978,-28.93 -28.93,-28.93 h -0.433 c -15.952,0 -28.93,12.978 -28.93,28.93 V 166.583 L 82.152,149.528 c -7.996,-3.427 -17.105,-2.613 -24.367,2.176 -7.262,4.788 -11.597,12.841 -11.597,21.539 v 0.363 c 0,7.361 3.155,14.389 8.656,19.28 l 67.103,59.669 v 28.989 c 0,4.143 3.358,7.5 7.5,7.5 4.142,0 7.5,-3.357 7.5,-7.5 v -32.356 c 0,-2.142 -0.916,-4.182 -2.516,-5.604 L 64.812,181.678 c -2.303,-2.048 -3.624,-4.989 -3.624,-8.071 v -0.363 c 0,-3.695 1.77,-6.982 4.854,-9.017 3.085,-2.034 6.804,-2.367 10.201,-0.911 l 50.247,21.534 c 0.461,0.198 0.944,0.353 1.447,0.456 0.749,0.155 1.505,0.188 2.244,0.115 0.105,-0.01 0.207,-0.03 0.311,-0.044 0.134,-0.019 0.268,-0.035 0.401,-0.062 0.152,-0.029 0.299,-0.069 0.447,-0.108 0.082,-0.021 0.166,-0.04 0.247,-0.063 0.163,-0.049 0.321,-0.107 0.48,-0.166 0.067,-0.025 0.135,-0.047 0.201,-0.074 0.153,-0.062 0.302,-0.133 0.449,-0.205 0.071,-0.034 0.143,-0.066 0.213,-0.103 0.132,-0.069 0.259,-0.146 0.387,-0.223 0.083,-0.05 0.167,-0.098 0.248,-0.151 0.106,-0.07 0.208,-0.146 0.31,-0.221 0.096,-0.07 0.193,-0.139 0.286,-0.214 0.084,-0.068 0.163,-0.141 0.243,-0.212 0.103,-0.09 0.206,-0.18 0.304,-0.276 0.071,-0.07 0.136,-0.144 0.204,-0.217 0.097,-0.104 0.196,-0.206 0.287,-0.316 0.073,-0.086 0.138,-0.178 0.207,-0.268 0.077,-0.101 0.156,-0.199 0.228,-0.305 0.091,-0.133 0.173,-0.272 0.255,-0.411 0.041,-0.069 0.085,-0.134 0.124,-0.205 0.36,-0.651 0.628,-1.361 0.781,-2.113 0.104,-0.503 0.152,-1.01 0.152,-1.512 V 58.702 c 0,-7.681 6.249,-13.93 13.93,-13.93 h 0.433 c 7.681,0 13.93,6.249 13.93,13.93 v 72.025 c 0,0.277 0.017,0.549 0.047,0.818 -0.396,3.934 2.339,7.537 6.292,8.156 l 44.88,7.037 c 0.035,0.006 0.071,0.011 0.106,0.017 27.148,3.857 47.621,27.444 47.621,54.866 v 0.766 c 0,12.691 -3.097,25.35 -8.956,36.606 l -20.345,39.088 c -1.913,3.675 -0.484,8.203 3.19,10.115 1.106,0.576 2.29,0.85 3.457,0.85 2.708,0 5.323,-1.472 6.659,-4.039 l 20.345,-39.088 c 6.968,-13.387 10.65,-28.44 10.65,-43.532 v -0.766 c 0,-16.958 -6.122,-33.351 -17.237,-46.158 -11.103,-12.792 -26.449,-21.154 -43.217,-23.55 z"
   id="path52" />
	<path
   style="fill:#222220"
   d="m 57.678,98.843 c 1.149,0 2.303,-0.264 3.368,-0.799 2.533,-1.273 4.131,-3.866 4.131,-6.701 V 61.55 H 97.81 c 4.142,0 7.5,-3.357 7.5,-7.5 0,-4.143 -3.358,-7.5 -7.5,-7.5 H 65.177 V 16.758 c 0,-2.835 -1.599,-5.428 -4.131,-6.701 -2.533,-1.273 -5.567,-1.009 -7.842,0.682 L 3.026,48.03 C 1.122,49.445 0,51.678 0,54.05 c 0,2.372 1.122,4.604 3.026,6.02 l 50.177,37.293 c 1.319,0.979 2.892,1.48 4.475,1.48 z M 50.177,76.424 20.073,54.05 50.177,31.677 Z"
   id="path54" />
	<path
   style="fill:#222220"
   d="M 295.278,48.03 245.1,10.738 c -2.274,-1.689 -5.309,-1.953 -7.842,-0.682 -2.533,1.273 -4.131,3.866 -4.131,6.701 V 46.55 h -32.633 c -4.142,0 -7.5,3.357 -7.5,7.5 0,4.143 3.358,7.5 7.5,7.5 h 32.633 v 29.793 c 0,2.835 1.599,5.428 4.131,6.701 1.065,0.535 2.219,0.799 3.368,0.799 1.583,0 3.156,-0.501 4.475,-1.48 L 295.279,60.07 c 1.904,-1.415 3.026,-3.647 3.026,-6.02 0,-2.373 -1.122,-4.605 -3.027,-6.02 z M 248.127,76.424 V 31.676 l 30.104,22.374 z"
   id="path56" />
</g><g
     id="g60">
</g><g
     id="g62">
</g><g
     id="g64">
</g><g
     id="g66">
</g><g
     id="g68">
</g><g
     id="g70">
</g><g
     id="g72">
</g><g
     id="g74">
</g><g
     id="g76">
</g><g
     id="g78">
</g><g
     id="g80">
</g><g
     id="g82">
</g><g
     id="g84">
</g><g
     id="g86">
</g><g
     id="g88">
</g></g>
</svg>
